# xmcd CD database file
#
# Track frame offsets:
#	150
#	18947
#	38551
#	57254
#	77238
#	97389
#	121742
#	142616
#	161648
#	182426
#	206909
#
# Disc length: 3016 seconds
#
# Revision: 0
# Processed by: cddbd v1.5.2PL0 Copyright (c) Steve Scherf et al.
# Submitted via: CDex 1.70beta2
#
DISCID=8a0bc60b
DTITLE=Cofradia - La llegada
DYEAR=2006
DGENRE=Salsa
TTITLE0=La llegada
TTITLE1=Aconsejate
TTITLE2=Y sientas que te quiero amar
TTITLE3=Homenaje
TTITLE4=Gabriela
TTITLE5=Escapate
TTITLE6=Reina querida
TTITLE7=Derroche de amor
TTITLE8=Quiero llenarme de ti
TTITLE9=Mi ritmo con sentimiento
TTITLE10=Usted abuso
EXTD=YEAR: 2006
EXTT0=
EXTT1=
EXTT2=
EXTT3=
EXTT4=
EXTT5=
EXTT6=
EXTT7=
EXTT8=
EXTT9=
EXTT10=
PLAYORDER=
